<svg id="Camada_1" data-name="Camada 1" xmlns="http://www.w3.org/2000/svg" viewBox="0 0 566.93 566.93"><defs><style>.cls-1{fill:#f9f1e6;}.cls-2{fill:#dd6a10;}.cls-3{fill:#89391a;}.cls-4{fill:#b23d17;}.cls-5{fill:#fff;}</style></defs><ellipse class="cls-1" cx="302.78" cy="306.9" rx="67.6" ry="62.81"/><path class="cls-2" d="M328.38,327.05c2.09-12.87-.86-26.14-9.22-37.95-3.53-5-9.27-12.79-14.94-15.27-6.88-3-9.69,1.21-14.56,6.7h0c-14,15.78-18.41,35.36-12.09,53.35"/><path class="cls-3" d="M303,351.16c-8.84.75-19.15-7.08-24.76-13.36a48.68,48.68,0,0,1-12-25c-.34-2.4-3.88-24.26-.3-24.49,5-.32,9.76,2,13.94,4.77A69.21,69.21,0,0,1,302,316.58"/><path class="cls-4" d="M301.69,351.16c8.86.56,19-7.49,24.48-13.88A48.61,48.61,0,0,0,337.64,312c.29-2.41,3.38-24.33-.21-24.49-5-.22-9.71,2.23-13.83,5.06a69.14,69.14,0,0,0-21.63,24"/><path class="cls-5" d="M250.94,187.3a38.24,38.24,0,0,0,2,8.1,43.25,43.25,0,0,0,3.51,7.44,54.74,54.74,0,0,0,10.4,12.52l1.54,1.34.76.66.8.64,1.59,1.26,1.65,1.19.82.6.85.56,1.69,1.13c1.16.71,2.29,1.45,3.49,2.1,2.35,1.37,4.78,2.6,7.23,3.8s5,2.27,7.52,3.34,5.12,2.09,7.72,3.08l7.83,3c5.25,2,10.54,4.08,15.77,6.46,2.62,1.19,5.22,2.46,7.78,3.86s5.07,2.9,7.53,4.52l1.83,1.25c.61.42,1.19.88,1.78,1.32,1.2.87,2.33,1.84,3.49,2.78a81.52,81.52,0,0,1,6.42,6.18,73.9,73.9,0,0,1,10.41,14.45,67.53,67.53,0,0,1,6.42,16.68,62,62,0,0,1,1.58,17.81c-.14,1.49-.27,3-.43,4.45s-.46,2.95-.74,4.41a57.61,57.61,0,0,1-11.21,24,77.28,77.28,0,0,1-12.23,12.29,125,125,0,0,1-14,9.74q-3.63,2.19-7.32,4.25c-2.47,1.35-4.93,2.7-7.44,4l6.73-5.09c2.24-1.68,4.47-3.38,6.65-5.12a158.48,158.48,0,0,0,12.52-10.95,80,80,0,0,0,10.45-12.46,62,62,0,0,0,4-6.93,54.47,54.47,0,0,0,2.9-7.35,51.58,51.58,0,0,0,1.78-7.66c.17-1.3.31-2.61.48-3.91s.13-2.63.2-3.94a57.64,57.64,0,0,0-1.92-15.53,60.77,60.77,0,0,0-5.93-14.5,66.32,66.32,0,0,0-9.28-12.72c-7.06-7.85-16.14-13.58-26-18.37s-20.34-8.76-30.61-13.75a119,119,0,0,1-15-8.53,74.77,74.77,0,0,1-13.17-11.3,53,53,0,0,1-9.52-14.43,43.85,43.85,0,0,1-2.64-8.18A35.44,35.44,0,0,1,250.94,187.3Z"/><path class="cls-5" d="M356.68,179.52c.28,1.51.44,3,.57,4.56s0,3,0,4.59-.25,3.05-.43,4.57-.53,3-.83,4.53A60.36,60.36,0,0,1,337.37,229c-1.18,1-2.38,2-3.59,2.89s-2.54,1.73-3.82,2.55-2.69,1.49-4.06,2.16-2.82,1.19-4.28,1.67c.9-1.27,1.84-2.44,2.79-3.58s1.82-2.34,2.73-3.46,1.75-2.32,2.65-3.43,1.69-2.31,2.55-3.43c3.34-4.58,6.44-9.22,9.3-14s5.47-9.72,7.92-14.84c.58-1.29,1.17-2.58,1.81-3.87s1.14-2.64,1.76-4,1.12-2.7,1.74-4.06S356,180.91,356.68,179.52Z"/><path class="cls-5" d="M268,251.48a72.53,72.53,0,0,0-6.61,4.72,64.75,64.75,0,0,0-5.89,5.44,70.11,70.11,0,0,0-5.09,6.11,65.6,65.6,0,0,0-4.22,6.67,62.05,62.05,0,0,0-5.63,45l.5,1.84c.17.62.38,1.22.57,1.83l.29.91c.1.3.22.58.33.88.22.58.4,1.18.66,1.76a46.15,46.15,0,0,0,3.35,6.71,58.13,58.13,0,0,0,4.29,6.21,64.81,64.81,0,0,0,5.12,5.64,84.7,84.7,0,0,0,12,9.76,132.61,132.61,0,0,0,13.52,8.08q3.49,1.86,7.1,3.57c2.4,1.15,4.84,2.24,7.28,3.33,9.92,4.32,20.05,8.93,29.49,14.81a98.91,98.91,0,0,1,13.53,9.9,66.28,66.28,0,0,1,6,6l1.38,1.62c.46.54.87,1.13,1.3,1.69.89,1.11,1.63,2.34,2.42,3.52l1.05,1.87c.17.31.36.61.51.94l.46,1,.45,1a8.56,8.56,0,0,1,.43,1l.74,2c.24.67.4,1.38.6,2.06l.28,1c.07.35.13.7.2,1.05.11.7.27,1.39.35,2.1l.17,2.12a31.83,31.83,0,0,1-.68,8.34,34,34,0,0,1-1.11,4,18.5,18.5,0,0,1-.73,1.92l-.79,1.89.45-2a17.14,17.14,0,0,0,.41-2l.3-2a19.27,19.27,0,0,0,.17-2,30.12,30.12,0,0,0-.42-7.89l-.41-1.91c-.16-.62-.37-1.24-.55-1.86-.1-.31-.18-.62-.29-.93l-.36-.9c-.26-.59-.46-1.2-.75-1.78a38.52,38.52,0,0,0-4-6.59A56.93,56.93,0,0,0,335,399.11c-2.08-1.58-4.27-3-6.49-4.45-1.13-.68-2.24-1.39-3.39-2l-1.72-1-1.74-1c-1.16-.64-2.35-1.23-3.52-1.85s-2.37-1.19-3.58-1.75c-2.39-1.16-4.82-2.27-7.26-3.34s-4.92-2.11-7.4-3.14-5-2-7.52-3q-7.66-3.12-15.12-6.88a135.74,135.74,0,0,1-14.47-8.53,91.49,91.49,0,0,1-13.14-10.87,64.26,64.26,0,0,1-10.48-13.8,54,54,0,0,1-3.65-8c-.28-.68-.48-1.38-.72-2.07s-.43-1.39-.61-2.09-.4-1.38-.56-2.09l-.47-2.1a64.65,64.65,0,0,1-1.22-8.53,66.42,66.42,0,0,1-.08-8.58,63,63,0,0,1,10.75-31.88A57,57,0,0,1,268,251.48Z"/><path class="cls-5" d="M246.86,435a44,44,0,0,1-.34-4.46c0-1.48.15-3,.27-4.48s.5-2.94.81-4.42.81-2.9,1.26-4.34a49.63,49.63,0,0,1,23.16-27c1.36-.67,2.72-1.31,4.1-1.91s2.84-1,4.26-1.45,2.92-.68,4.38-.94a42,42,0,0,1,4.47-.33c-1.19.95-2.38,1.78-3.57,2.57s-2.28,1.72-3.41,2.53-2.18,1.75-3.27,2.56-2.08,1.79-3.13,2.63a110.16,110.16,0,0,0-11.32,11.34A108.26,108.26,0,0,0,255,420.25c-.68,1.16-1.38,2.33-2.13,3.49s-1.33,2.4-2,3.62-1.28,2.49-2,3.75S247.61,433.7,246.86,435Z"/></svg>