<svg xmlns="http://www.w3.org/2000/svg" id="Camada_1" data-name="Camada 1" viewBox="212 173 131 239" shape-rendering="geometricPrecision"><defs><style>.cls-3{fill:#89391a}</style></defs><ellipse cx="278.08" cy="290.54" rx="62.54" ry="58.11" style="fill:#f9f1e6"/><path d="M301.76 309.18c1.93-11.91-.8-24.18-8.54-35.11-3.26-4.61-8.57-11.83-13.82-14.13-6.36-2.78-9 1.12-13.47 6.2-13 14.6-17 32.71-11.18 49.36" style="fill:#dd6a10"/><path d="M278.28 331.49c-8.18.69-17.73-6.56-22.91-12.36A45 45 0 0 1 244.28 296c-.32-2.22-3.6-22.44-.28-22.66 4.62-.29 9 1.88 12.89 4.41a64.15 64.15 0 0 1 20.47 21.77" class="cls-3"/><path d="M277.07 331.48c8.19.52 17.58-6.92 22.64-12.83a45 45 0 0 0 10.61-23.38c.27-2.23 3.13-22.51-.19-22.66-4.62-.2-9 2.06-12.8 4.68a64.15 64.15 0 0 0-20 22.18" style="fill:#b23d17"/><path d="M230.11 179.89a35 35 0 0 0 1.85 7.49 40 40 0 0 0 3.25 6.89 50.8 50.8 0 0 0 9.62 11.58l1.42 1.23.71.62.74.59 1.47 1.17 1.53 1.1.76.55.78.52 1.56 1.05c1.08.65 2.13 1.34 3.23 1.94 2.17 1.27 4.43 2.41 6.7 3.52s4.61 2.1 6.95 3.09 4.73 1.93 7.14 2.84l7.25 2.77c4.86 1.84 9.74 3.78 14.59 6 2.42 1.09 4.83 2.27 7.19 3.57s4.7 2.68 7 4.18l1.69 1.16c.57.39 1.1.82 1.65 1.22 1.11.8 2.16 1.7 3.23 2.57a75 75 0 0 1 5.94 5.72 68.4 68.4 0 0 1 9.64 13.35 63 63 0 0 1 5.9 15.39 57.8 57.8 0 0 1 1.46 16.48c-.13 1.37-.25 2.75-.4 4.12s-.42 2.72-.68 4.07a53.2 53.2 0 0 1-10.37 22.19 71.6 71.6 0 0 1-11.31 11.37 117 117 0 0 1-12.94 9q-3.36 2-6.77 3.93c-2.29 1.25-4.57 2.5-6.88 3.69l6.22-4.7c2.07-1.56 4.13-3.13 6.15-4.75A142 142 0 0 0 318 335.33a74 74 0 0 0 9.67-11.53 55 55 0 0 0 3.69-6.41 51 51 0 0 0 2.68-6.8 47 47 0 0 0 1.64-7.09c.17-1.2.3-2.42.45-3.62s.12-2.43.19-3.64a53.6 53.6 0 0 0-1.78-14.37 56.6 56.6 0 0 0-5.54-13.42 61.7 61.7 0 0 0-8.58-11.76c-6.54-7.27-14.94-12.56-24-17s-18.82-8.1-28.32-12.72a109.6 109.6 0 0 1-13.86-7.9A69.4 69.4 0 0 1 242 208.63a49.3 49.3 0 0 1-8.8-13.35 40.2 40.2 0 0 1-2.44-7.57 32.3 32.3 0 0 1-.65-7.82M327.94 172.69a42 42 0 0 1 .52 4.22c.05 1.41.05 2.82 0 4.25s-.23 2.81-.4 4.23-.48 2.79-.76 4.19a55.8 55.8 0 0 1-17.25 28.93c-1.09.91-2.2 1.81-3.32 2.67s-2.35 1.6-3.54 2.36-2.48 1.37-3.74 2-2.62 1.1-4 1.54c.83-1.18 1.71-2.26 2.58-3.31s1.68-2.16 2.53-3.2 1.62-2.15 2.45-3.17 1.56-2.15 2.36-3.18c3.09-4.24 6-8.53 8.61-13s5.06-9 7.32-13.73c.53-1.19 1.08-2.39 1.68-3.58s1.05-2.44 1.62-3.67 1-2.49 1.62-3.75 1.09-2.49 1.72-3.8" class="cls-3"/><path d="M245.89 239.27a67 67 0 0 0-6.11 4.36 59 59 0 0 0-5.45 5 63 63 0 0 0-4.71 5.65 62 62 0 0 0-3.91 6.17 57.3 57.3 0 0 0-7 27.61 58.3 58.3 0 0 0 1.78 14.06l.47 1.7c.15.57.36 1.13.53 1.69l.27.84c.09.28.2.55.3.82.2.54.37 1.1.61 1.63a43 43 0 0 0 3.1 6.21 55 55 0 0 0 4 5.74 60 60 0 0 0 4.74 5.22 78.3 78.3 0 0 0 11.09 9 121 121 0 0 0 12.51 7.47q3.24 1.73 6.57 3.31c2.22 1.06 4.47 2.07 6.73 3.08 9.18 4 18.55 8.26 27.28 13.7a91 91 0 0 1 12.52 9.16 62 62 0 0 1 5.56 5.52l1.27 1.5c.42.5.8 1.05 1.21 1.57.81 1 1.5 2.16 2.23 3.25l1 1.73c.15.29.33.57.47.87l.42.9.42.9a8 8 0 0 1 .39.91l.69 1.86c.23.62.37 1.27.55 1.9l.26.95c.07.32.12.65.19 1 .1.65.25 1.29.32 2l.16 2a29.2 29.2 0 0 1-.63 7.71 31 31 0 0 1-1 3.69 17 17 0 0 1-.67 1.78l-.73 1.74.41-1.84a16 16 0 0 0 .39-1.84l.27-1.84a17 17 0 0 0 .16-1.85 28.2 28.2 0 0 0-.38-7.3l-.38-1.76c-.16-.59-.35-1.16-.52-1.73l-.26-.86-.34-.83c-.24-.55-.43-1.11-.7-1.65a36.5 36.5 0 0 0-3.7-6.1 53.2 53.2 0 0 0-10.35-10c-1.93-1.46-4-2.81-6-4.12-1-.62-2.07-1.28-3.14-1.87l-1.59-.91-1.61-.89c-1.07-.6-2.17-1.14-3.25-1.71s-2.2-1.1-3.31-1.62q-3.33-1.61-6.73-3.09c-2.26-1-4.54-1.95-6.84-2.9s-4.59-1.86-7-2.82q-7.08-2.88-14-6.36a128 128 0 0 1-13.45-7.91 85.4 85.4 0 0 1-12.16-10.06 59.3 59.3 0 0 1-9.69-12.77 50 50 0 0 1-3.39-7.36c-.25-.63-.43-1.28-.65-1.92s-.41-1.29-.58-1.93-.36-1.28-.51-1.93l-.44-1.95a59.7 59.7 0 0 1-1.2-15.83 58.2 58.2 0 0 1 10-29.49 52.6 52.6 0 0 1 23.51-19.16" class="cls-3"/><path d="M226.34 409.07A40 40 0 0 1 226 405c0-1.37.14-2.75.25-4.14s.46-2.73.75-4.1.75-2.68 1.17-4a45.9 45.9 0 0 1 21.42-24.95c1.26-.61 2.52-1.21 3.79-1.76s2.63-.93 3.94-1.35 2.71-.62 4.06-.87a41 41 0 0 1 4.13-.3c-1.1.88-2.2 1.65-3.29 2.38s-2.11 1.6-3.16 2.34-2 1.62-3 2.37-1.93 1.65-2.9 2.44a103 103 0 0 0-10.48 10.48 101 101 0 0 0-8.8 11.93c-.63 1.07-1.27 2.15-2 3.23s-1.23 2.22-1.89 3.34-1.18 2.31-1.83 3.48-1.16 2.33-1.82 3.55" class="cls-3"/></svg>