<svg xmlns="http://www.w3.org/2000/svg" id="Camada_1" data-name="Camada 1" viewBox="113 235 355 96" shape-rendering="geometricPrecision"><defs><style>.cls-3{fill:#89391a}</style></defs><ellipse cx="140.2" cy="282.46" rx="25" ry="23.23" style="fill:#f9f1e6"/><path d="M149.67 289.91a18.78 18.78 0 0 0-3.41-14c-1.31-1.84-3.43-4.73-5.53-5.65-2.54-1.11-3.58.45-5.38 2.48-5.19 5.84-6.81 13.08-4.48 19.73" style="fill:#dd6a10"/><path d="M209.52 280.4a4.86 4.86 0 0 1-1.88-1.83A5.1 5.1 0 0 1 207 276a5.13 5.13 0 0 1 .68-2.61 4.9 4.9 0 0 1 1.88-1.82 5.8 5.8 0 0 1 4.75-.28 4.24 4.24 0 0 1 1.6 1.08l-.67.67a4 4 0 0 0-3-1.18 4.4 4.4 0 0 0-2.16.54 4 4 0 0 0-1.52 1.49 4.34 4.34 0 0 0 0 4.23 4 4 0 0 0 1.52 1.49 4.4 4.4 0 0 0 2.16.54 3.93 3.93 0 0 0 3-1.2l.67.67a4.36 4.36 0 0 1-1.61 1.1 5.6 5.6 0 0 1-2.06.37 5.43 5.43 0 0 1-2.72-.69M223.14 271h1.05v9.09h5.61v.91h-6.66ZM236.56 271h1.06v10h-1.06ZM254.25 271v10h-.87l-6.44-8.12V281h-1.05v-10h.87l6.45 8.12V271ZM262.51 271h1.06v10h-1.06ZM273.5 280.4a4.84 4.84 0 0 1-1.87-1.83A5.1 5.1 0 0 1 271 276a5.13 5.13 0 0 1 .68-2.61 4.84 4.84 0 0 1 1.88-1.82 5.8 5.8 0 0 1 4.75-.28 4.24 4.24 0 0 1 1.6 1.08l-.67.67a4 4 0 0 0-3-1.18 4.4 4.4 0 0 0-2.16.54 3.9 3.9 0 0 0-1.52 1.49 4.34 4.34 0 0 0 0 4.23 3.9 3.9 0 0 0 1.52 1.49 4.4 4.4 0 0 0 2.16.54 3.93 3.93 0 0 0 3-1.2l.67.67a4.44 4.44 0 0 1-1.61 1.1 5.6 5.6 0 0 1-2.07.37 5.45 5.45 0 0 1-2.73-.69M293.14 278.29h-5.57l-1.2 2.68h-1.11l4.58-10h1l4.58 10h-1.12Zm-.38-.85-2.41-5.38-2.4 5.38ZM321.27 271v10h-1v-8l-3.93 6.74h-.5l-3.93-6.7v8h-1V271h.88l4.34 7.42 4.27-7.42ZM336.61 280.05v.95h-7.08v-10h6.87v.91h-5.81v3.57h5.18v.9h-5.18v3.71ZM334 268.37h1.36l-2.32 1.77h-1ZM344.1 271h4.08a5.9 5.9 0 0 1 2.8.64 4.6 4.6 0 0 1 1.89 1.77 5.36 5.36 0 0 1 0 5.19 4.6 4.6 0 0 1-1.89 1.77 5.9 5.9 0 0 1-2.8.64h-4.08Zm4 9.09a4.8 4.8 0 0 0 2.3-.52 3.8 3.8 0 0 0 1.53-1.44 4.38 4.38 0 0 0 0-4.25 3.73 3.73 0 0 0-1.53-1.44 4.8 4.8 0 0 0-2.3-.53h-3v8.18ZM360.92 271H362v10h-1.06ZM371.91 280.4a4.86 4.86 0 0 1-1.88-1.83 5.1 5.1 0 0 1-.68-2.61 5.13 5.13 0 0 1 .68-2.61 4.9 4.9 0 0 1 1.88-1.82 5.8 5.8 0 0 1 4.75-.28 4.24 4.24 0 0 1 1.6 1.08l-.67.67a4 4 0 0 0-3-1.18 4.4 4.4 0 0 0-2.16.54 4 4 0 0 0-1.52 1.49 4.34 4.34 0 0 0 0 4.23 4 4 0 0 0 1.52 1.49 4.4 4.4 0 0 0 2.16.54 3.93 3.93 0 0 0 3-1.2l.67.67a4.36 4.36 0 0 1-1.61 1.1 5.6 5.6 0 0 1-2.06.37 5.43 5.43 0 0 1-2.68-.65M391.55 278.29H386l-1.2 2.68h-1.1l4.57-10h1.05l4.57 10h-1.11Zm-.39-.85-2.4-5.38-2.4 5.38ZM195.43 313.68a6.83 6.83 0 0 0 .93 3.51 9 9 0 0 0 2.53 2.75 12.6 12.6 0 0 0 3.64 1.82 13.6 13.6 0 0 0 4.22.66 19 19 0 0 0 3.48-.33 8.3 8.3 0 0 0 3.19-1.29 7.1 7.1 0 0 0 2.3-2.63 9.1 9.1 0 0 0 .88-4.29 4.15 4.15 0 0 0-1.59-3.34 16.5 16.5 0 0 0-4-2.35c-1.61-.69-3.35-1.35-5.2-2a34 34 0 0 1-5.21-2.22 14 14 0 0 1-4-3.11 6.76 6.76 0 0 1-1.59-4.6 6.23 6.23 0 0 1 1.19-3.82 9.5 9.5 0 0 1 3-2.6 14.2 14.2 0 0 1 3.85-1.49 17 17 0 0 1 3.84-.48 21.1 21.1 0 0 1 7.5 1.06 10.2 10.2 0 0 1 4.22 2.88l-1.21 3.74a4.43 4.43 0 0 0-.66-2.17 7.6 7.6 0 0 0-1.94-2.2 10.8 10.8 0 0 0-3.26-1.72 14.2 14.2 0 0 0-4.65-.68 13 13 0 0 0-3.19.4 9.5 9.5 0 0 0-2.9 1.24 7 7 0 0 0-2.13 2.15 5.86 5.86 0 0 0-.83 3.18 4.47 4.47 0 0 0 1 2.91 8.7 8.7 0 0 0 2.53 2.07 19 19 0 0 0 3.59 1.54l4.12 1.34c1.39.46 2.77.95 4.12 1.47a17 17 0 0 1 3.61 1.89 9.6 9.6 0 0 1 2.58 2.63 6.9 6.9 0 0 1 1 3.64 9.77 9.77 0 0 1-1.08 5.33 8 8 0 0 1-3.14 3 12.7 12.7 0 0 1-4.39 1.34 41 41 0 0 1-4.93.3 26 26 0 0 1-5.56-.53 19.8 19.8 0 0 1-3.95-1.27 8.6 8.6 0 0 1-2.35-1.49c-.52-.5-.78-.91-.78-1.21ZM239.35 305.34a14.4 14.4 0 0 1 3.76.43 13 13 0 0 1 2.66 1v-1.21a11.5 11.5 0 0 0-.61-4.17 5.1 5.1 0 0 0-1.52-2.2 4.07 4.07 0 0 0-1.94-.86 14 14 0 0 0-1.95-.15 5.27 5.27 0 0 0-3.18.88 4.22 4.22 0 0 0-1.62 2.4l-2.93-.91a9.16 9.16 0 0 1 3.33-2.37 11.7 11.7 0 0 1 4.45-.76 16 16 0 0 1 2.83.3 9.1 9.1 0 0 1 3.06 1.19 7.5 7.5 0 0 1 2.43 2.5 8.2 8.2 0 0 1 1 4.25v14.61a3.1 3.1 0 0 0 .18 1.18 1.35 1.35 0 0 0 .43.61 1.4 1.4 0 0 0 .53.23 3 3 0 0 0 .43.05c.23 0 .35.15.35.45a1.2 1.2 0 0 1-.1.46h-7.63c-1.65 0-3.43 0-5.33-.13a19.7 19.7 0 0 1-5.33-.93 9.35 9.35 0 0 1-4.12-2.61 7.37 7.37 0 0 1-1.65-5.18 8.3 8.3 0 0 1 1-4.32 8 8 0 0 1 2.75-2.78 12.4 12.4 0 0 1 4-1.49 24 24 0 0 1 4.72-.47m-9 9a7.23 7.23 0 0 0 1.37 4.73 7.6 7.6 0 0 0 3.36 2.35 14.7 14.7 0 0 0 4.24.81c1.5.07 2.82.1 4 .1a4 4 0 0 0 1.64-.35q.78-.36.84-1.77v-12.55a13 13 0 0 0-2.58-1 14.1 14.1 0 0 0-3.84-.46 18.6 18.6 0 0 0-3.36.31 6.8 6.8 0 0 0-2.88 1.21 6.44 6.44 0 0 0-2 2.5 9.7 9.7 0 0 0-.79 4.16ZM256.18 322.37a3 3 0 0 0 .43-.05 1 1 0 0 0 .5-.25 1.8 1.8 0 0 0 .43-.64 2.56 2.56 0 0 0 .21-1.13v-19c0-1-.19-1.56-.46-1.77a1.83 1.83 0 0 0-1.11-.3.28.28 0 0 1-.28-.15.7.7 0 0 1-.08-.31 1.2 1.2 0 0 1 .11-.45l5.2-.91v1.52c0 .33 0 .75-.05 1.26a5 5 0 0 1 1.87-1.87 7.1 7.1 0 0 1 3.79-.86 15 15 0 0 1 3 .33 9.6 9.6 0 0 1 3 1.16 7.1 7.1 0 0 1 2.33 2.3A6.9 6.9 0 0 1 276 305v15.3a3.1 3.1 0 0 0 .18 1.18 1.6 1.6 0 0 0 .43.64 1.2 1.2 0 0 0 .53.25 3 3 0 0 0 .43.05c.23 0 .35.13.35.4a.9.9 0 0 1-.1.41h-7a1.2 1.2 0 0 1-.1-.46c0-.27.11-.4.35-.4a2.06 2.06 0 0 0 1-.33c.39-.22.59-.8.59-1.74v-14.36a8.85 8.85 0 0 0-1.6-5.56 5.16 5.16 0 0 0-4.32-2.07 7.9 7.9 0 0 0-2.65.4 5.2 5.2 0 0 0-1.75 1 4.05 4.05 0 0 0-1 1.31 3.4 3.4 0 0 0-.3 1.31v17.97a3.1 3.1 0 0 0 .18 1.18 1.6 1.6 0 0 0 .43.64 1.2 1.2 0 0 0 .53.25 3 3 0 0 0 .48.05c.27 0 .37.13.3.4a.9.9 0 0 1-.1.41h-7a1.2 1.2 0 0 1-.11-.46c.07-.27.19-.4.43-.4M316.78 288.91a19.2 19.2 0 0 1 7.25 1.24 11 11 0 0 1 5 4l-3.59 1.17a7.25 7.25 0 0 0-1.71-2.5 9.2 9.2 0 0 0-2.23-1.55 9.4 9.4 0 0 0-2.4-.78 13 13 0 0 0-2.3-.23 12.2 12.2 0 0 0-5.41 1.24 14 14 0 0 0-4.42 3.41 16.9 16.9 0 0 0-3 5.08 17.2 17.2 0 0 0-1.11 6.19 17 17 0 0 0 1.11 6.17 16.5 16.5 0 0 0 3 5 14.3 14.3 0 0 0 4.42 3.39 12.2 12.2 0 0 0 5.41 1.23 14 14 0 0 0 2.38-.2 11.9 11.9 0 0 0 4.47-1.69 6.8 6.8 0 0 0 1.64-1.44v-9.1c0-.88-.21-1.43-.53-1.67a1.55 1.55 0 0 0-.88-.35h-2.38a13 13 0 0 0-1.59.1 7.3 7.3 0 0 0-1.64.4 5.2 5.2 0 0 0-1.47.86 3.2 3.2 0 0 0-1 1.47.47.47 0 0 1-.51.3 1.4 1.4 0 0 1-.4-.05l.76-4h14.81a1.1 1.1 0 0 1 .1.4c0 .31-.12.46-.35.46a2.07 2.07 0 0 0-1 .35c-.39.24-.58.84-.58 1.82v10.11a13.6 13.6 0 0 1-5.13 2.7 23.1 23.1 0 0 1-6.75.94A17.2 17.2 0 0 1 310 322a17.15 17.15 0 0 1-9.22-9.12 17.2 17.2 0 0 1 0-13.45 17.48 17.48 0 0 1 9.22-9.2 16.9 16.9 0 0 1 6.78-1.32M348.78 305.34a14.4 14.4 0 0 1 3.76.43 12.7 12.7 0 0 1 2.65 1v-1.21a11.5 11.5 0 0 0-.6-4.17 5.16 5.16 0 0 0-1.52-2.2 4.07 4.07 0 0 0-1.94-.86 14 14 0 0 0-1.95-.15 5.25 5.25 0 0 0-3.18.82 4.22 4.22 0 0 0-1.62 2.4l-2.93-.91a9.1 9.1 0 0 1 3.33-2.37 11.7 11.7 0 0 1 4.45-.76 16 16 0 0 1 2.83.3 9.1 9.1 0 0 1 3.06 1.19 7.35 7.35 0 0 1 2.42 2.5 8.1 8.1 0 0 1 1 4.25v14.61a3.1 3.1 0 0 0 .18 1.18 1.35 1.35 0 0 0 .43.61 1.4 1.4 0 0 0 .53.23 3 3 0 0 0 .43.05c.23 0 .35.15.35.45a1.2 1.2 0 0 1-.1.46h-7.63c-1.65 0-3.43 0-5.33-.13a19.8 19.8 0 0 1-5.34-.93 9.46 9.46 0 0 1-4.12-2.61 7.42 7.42 0 0 1-1.64-5.18 8.3 8.3 0 0 1 1-4.32 8 8 0 0 1 2.75-2.78 12.4 12.4 0 0 1 4-1.49 24 24 0 0 1 4.73-.41m-9 9a7.23 7.23 0 0 0 1.36 4.73 7.6 7.6 0 0 0 3.36 2.35 14.8 14.8 0 0 0 4.25.81c1.5.07 2.82.1 4 .1a4 4 0 0 0 1.64-.35c.52-.24.8-.83.83-1.77v-12.55a12.6 12.6 0 0 0-2.57-1 14.1 14.1 0 0 0-3.84-.46 19 19 0 0 0-3.37.31 6.9 6.9 0 0 0-2.88 1.21 6.5 6.5 0 0 0-2 2.5 9.7 9.7 0 0 0-.78 4.16ZM365.1 322.37a3 3 0 0 0 .43-.05 1.1 1.1 0 0 0 .51-.25 2 2 0 0 0 .42-.64 2.56 2.56 0 0 0 .21-1.13v-28.56c0-1-.19-1.57-.46-1.77a1.83 1.83 0 0 0-1.11-.3.29.29 0 0 1-.28-.15.7.7 0 0 1-.07-.31 1.2 1.2 0 0 1 .1-.45l5.2-.91-.05 12.33a8 8 0 0 1 .81-.88 5.7 5.7 0 0 1 1.29-.89 8.4 8.4 0 0 1 1.9-.68 10.4 10.4 0 0 1 2.57-.28 14.4 14.4 0 0 1 4.68.76 11.1 11.1 0 0 1 4 2.32 11.4 11.4 0 0 1 2.75 4 14.7 14.7 0 0 1 1 5.81q0 6.72-4.32 9.83t-12.21 3.11h-7.61a1.2 1.2 0 0 1-.1-.46c-.01-.32.1-.45.34-.45m7.38.05a18.8 18.8 0 0 0 4.88-.63 11.8 11.8 0 0 0 4.17-2.05 10 10 0 0 0 2.9-3.74 13.2 13.2 0 0 0 1.09-5.66 16.9 16.9 0 0 0-.76-5.36 11.3 11.3 0 0 0-2-3.74 8.1 8.1 0 0 0-2.86-2.2 8 8 0 0 0-3.34-.73 10.7 10.7 0 0 0-2.73.3 7.2 7.2 0 0 0-1.87.79 5 5 0 0 0-1.21 1c-.3.37-.55.71-.76 1v18.9q0 1.41.69 1.77a4 4 0 0 0 1.8.35M394.42 322.37a3 3 0 0 0 .43-.05 1.3 1.3 0 0 0 .53-.23 1.43 1.43 0 0 0 .43-.61 3.4 3.4 0 0 0 .17-1.18v-19q0-1.46-.45-1.77a1.83 1.83 0 0 0-1.11-.3.28.28 0 0 1-.28-.15.7.7 0 0 1-.08-.31 1.4 1.4 0 0 1 .1-.45l5.21-.91v1.67a9.6 9.6 0 0 1 3.46-1.34 19.5 19.5 0 0 1 3.41-.33 14.9 14.9 0 0 1 5.11.81 6.65 6.65 0 0 1 3.39 2.58l-2.74 1.4a4.6 4.6 0 0 0-.7-1.46 6.2 6.2 0 0 0-1.22-1.29 5.7 5.7 0 0 0-1.66-.94 6.1 6.1 0 0 0-2.08-.35 17 17 0 0 0-2.09.15 5.4 5.4 0 0 0-2.28.86 5.46 5.46 0 0 0-1.84 2.2 9.3 9.3 0 0 0-.76 4.17v14.76a2.7 2.7 0 0 0 .2 1.13 2 2 0 0 0 .43.64 1 1 0 0 0 .51.25 3 3 0 0 0 .43.05c.23 0 .35.13.35.4a1.2 1.2 0 0 1-.1.46h-7a1.4 1.4 0 0 1-.1-.46c-.03-.27.09-.4.33-.4M420.7 322.37a3 3 0 0 0 .43-.05 1 1 0 0 0 .5-.25 1.8 1.8 0 0 0 .43-.64 2.56 2.56 0 0 0 .21-1.13v-19.06c0-1-.19-1.57-.46-1.77a1.83 1.83 0 0 0-1.11-.3c-.24 0-.36-.15-.36-.46a1.2 1.2 0 0 1 .11-.4l5.2-.91v22.9a3.1 3.1 0 0 0 .18 1.18 1.6 1.6 0 0 0 .43.64 1.2 1.2 0 0 0 .53.25 3 3 0 0 0 .48.05c.27 0 .37.13.3.4a.9.9 0 0 1-.1.41h-7a1.2 1.2 0 0 1-.11-.46c-.02-.27.1-.4.34-.4m2.78-31a2.57 2.57 0 0 1 1.89.78 2.79 2.79 0 0 1 0 3.89 2.57 2.57 0 0 1-1.89.78 2.73 2.73 0 1 1 0-5.45M444.91 297.35a11.6 11.6 0 0 1 4.88 1 11.5 11.5 0 0 1 3.79 2.78 12.5 12.5 0 0 1 2.45 4.12 14.6 14.6 0 0 1 .86 5h-20.83a14.4 14.4 0 0 0 .74 4.62 12.9 12.9 0 0 0 2 3.82 9.4 9.4 0 0 0 3 2.58 8.12 8.12 0 0 0 7.66 0 9.9 9.9 0 0 0 3-2.58l2 1.21a13.5 13.5 0 0 1-4 2.53 12.5 12.5 0 0 1-4.8.91 12.92 12.92 0 0 1-12-7.94 12.6 12.6 0 0 1-1-5.05 13.9 13.9 0 0 1 .91-5.05 12.5 12.5 0 0 1 2.55-4.15 12 12 0 0 1 3.92-2.8 11.8 11.8 0 0 1 4.87-1m-8.85 12h17.34a18.3 18.3 0 0 0-.68-4.32 11.1 11.1 0 0 0-1.67-3.49 8.1 8.1 0 0 0-2.63-2.35 7.13 7.13 0 0 0-3.51-.86 7.4 7.4 0 0 0-3.56.86 8.5 8.5 0 0 0-2.73 2.35 11.8 11.8 0 0 0-1.8 3.49 16 16 0 0 0-.76 4.35ZM462.15 322.37a3 3 0 0 0 .42-.05 1 1 0 0 0 .51-.25 2.1 2.1 0 0 0 .43-.64 2.7 2.7 0 0 0 .2-1.13v-28.56q0-1.47-.45-1.77a1.83 1.83 0 0 0-1.11-.3.28.28 0 0 1-.28-.15.75.75 0 0 1-.08-.31 1.2 1.2 0 0 1 .1-.45l5.21-.91-.05 32.45a3.4 3.4 0 0 0 .17 1.18 1.7 1.7 0 0 0 .43.64 1.2 1.2 0 0 0 .54.25 3 3 0 0 0 .48.05c.26 0 .37.13.3.4a1 1 0 0 1-.1.41h-7a1.2 1.2 0 0 1-.1-.46c.02-.27.14-.4.38-.4M140.28 298.83c-3.27.27-7.08-2.62-9.16-4.94a18 18 0 0 1-4.43-9.26c-.12-.89-1.43-9-.11-9.06a8.72 8.72 0 0 1 5.16 1.77 25.6 25.6 0 0 1 8.18 8.7" class="cls-3"/><path d="M139.8 298.83c3.27.2 7-2.77 9-5.13a18 18 0 0 0 4.24-9.35c.11-.89 1.25-9-.08-9.06a8.7 8.7 0 0 0-5.11 1.87 25.6 25.6 0 0 0-8 8.87" style="fill:#b23d17"/><path d="M121 238.23a13.6 13.6 0 0 0 .74 3 15 15 0 0 0 1.3 2.76 20.4 20.4 0 0 0 3.84 4.63l.57.49.28.25.3.23.59.47.61.44.3.22.32.21.62.42c.43.26.85.53 1.29.77.87.51 1.77 1 2.68 1.41s1.84.84 2.78 1.23 1.89.78 2.85 1.14L143 257c1.94.73 3.89 1.51 5.83 2.39 1 .43 1.93.91 2.87 1.42s1.88 1.08 2.79 1.68l.68.46c.22.15.44.33.66.49.44.32.86.68 1.29 1a32 32 0 0 1 2.37 2.29 27.4 27.4 0 0 1 3.85 5.34 24.9 24.9 0 0 1 2.37 6.17 22.9 22.9 0 0 1 .59 6.59c-.05.55-.1 1.1-.16 1.65s-.17 1.08-.27 1.63a22 22 0 0 1-.93 3.17 21.1 21.1 0 0 1-3.22 5.69 28.6 28.6 0 0 1-4.52 4.55 47 47 0 0 1-5.17 3.6c-.9.54-1.8 1.06-2.71 1.57s-1.82 1-2.75 1.48l2.49-1.88c.83-.63 1.65-1.25 2.46-1.9a60 60 0 0 0 4.63-4.05 29.6 29.6 0 0 0 3.86-4.61 20 20 0 0 0 1.47-2.56 20.5 20.5 0 0 0 1.08-2.72 18 18 0 0 0 .65-2.83c.07-.48.12-1 .18-1.45s.05-1 .08-1.45a21.3 21.3 0 0 0-.71-5.74 22.8 22.8 0 0 0-2.2-5.37 24.2 24.2 0 0 0-3.43-4.7 30.8 30.8 0 0 0-9.6-6.8c-3.63-1.78-7.52-3.23-11.32-5.08a44 44 0 0 1-5.54-3.16 27.3 27.3 0 0 1-4.87-4.17 19.5 19.5 0 0 1-3.52-5.34 16.4 16.4 0 0 1-1-3 12.8 12.8 0 0 1-.28-3.13M160.14 235.35a16 16 0 0 1 .2 1.69v1.7c0 .57-.09 1.12-.16 1.69s-.19 1.11-.31 1.67a21.7 21.7 0 0 1-2.55 6.32 22 22 0 0 1-4.34 5.25c-.43.36-.88.72-1.33 1.06s-.93.64-1.41 1-1 .55-1.5.8-1 .44-1.58.61c.33-.47.68-.9 1-1.32s.67-.86 1-1.28.65-.86 1-1.27.62-.85.94-1.27c1.24-1.69 2.39-3.41 3.44-5.18s2-3.59 2.93-5.49c.21-.47.43-.95.67-1.43s.42-1 .65-1.46.41-1 .65-1.5.44-1.07.7-1.59" class="cls-3"/><path d="M127.34 262a27 27 0 0 0-2.44 1.75 25 25 0 0 0-2.19 2 29 29 0 0 0-1.88 2.26 26 26 0 0 0-1.56 2.47 23 23 0 0 0-2.08 16.65l.19.69c.06.22.14.45.21.67l.1.34c0 .11.09.21.12.32s.15.44.25.65a17 17 0 0 0 1.24 2.49 22 22 0 0 0 1.59 2.29 23 23 0 0 0 1.89 2.09 31.7 31.7 0 0 0 4.43 3.61 50 50 0 0 0 5 3c.87.45 1.74.89 2.63 1.32s1.79.82 2.69 1.23a83 83 0 0 1 10.91 5.47 37 37 0 0 1 5 3.67 24 24 0 0 1 2.22 2.2l.51.6c.17.2.32.42.48.63.33.41.6.86.9 1.3l.39.69c.06.12.13.23.18.35l.17.36.17.36a3 3 0 0 1 .16.36l.27.74c.09.25.15.51.22.76l.11.38c0 .13.05.26.07.39s.1.52.13.78l.06.78a11.8 11.8 0 0 1-.25 3.09 12 12 0 0 1-.41 1.47 5.5 5.5 0 0 1-.27.71l-.29.7.17-.74c0-.24.12-.48.15-.73l.11-.74a6 6 0 0 0 .06-.74 11.3 11.3 0 0 0-.15-2.91l-.15-.71-.21-.69c0-.11-.07-.23-.11-.34l-.13-.34c-.09-.22-.17-.44-.28-.65a13.5 13.5 0 0 0-1.48-2.44 21.2 21.2 0 0 0-4.14-4 36 36 0 0 0-2.4-1.64c-.42-.26-.83-.52-1.25-.75l-.64-.37-.64-.35c-.43-.24-.87-.46-1.3-.69l-1.33-.65c-.88-.42-1.78-.83-2.68-1.23s-1.82-.78-2.74-1.16l-2.78-1.13q-2.84-1.14-5.59-2.54a51 51 0 0 1-5.35-3.15 34 34 0 0 1-4.86-4 24 24 0 0 1-3.88-5.11 20.6 20.6 0 0 1-1.35-2.94c-.1-.25-.17-.51-.26-.77s-.16-.51-.23-.77-.15-.51-.21-.77l-.17-.78a24 24 0 0 1-.48-6.33 23.36 23.36 0 0 1 4-11.79 21.2 21.2 0 0 1 9.38-7.67" class="cls-3"/><path d="M119.52 329.84c-.07-.54-.11-1.09-.13-1.65s.06-1.1.11-1.65.18-1.09.29-1.64.3-1.07.47-1.6a18.1 18.1 0 0 1 3.36-5.78 17.7 17.7 0 0 1 5.21-4.19c.5-.25 1-.49 1.51-.71s1-.37 1.58-.54 1.08-.25 1.62-.35 1.1-.11 1.65-.12c-.44.35-.88.66-1.32.95s-.84.64-1.26.94-.81.64-1.21.95-.77.66-1.16 1a40 40 0 0 0-4.18 4.19 40 40 0 0 0-3.52 4.77c-.25.43-.51.86-.79 1.29s-.49.89-.76 1.34-.47.92-.73 1.39-.46.92-.74 1.41" class="cls-3"/></svg>