<svg width="356" height="97" viewBox="0 0 356 97" fill="none" xmlns="http://www.w3.org/2000/svg">
<path d="M27.21 70.69C41.0171 70.69 52.21 60.2895 52.21 47.46C52.21 34.6304 41.0171 24.23 27.21 24.23C13.4029 24.23 2.21 34.6304 2.21 47.46C2.21 60.2895 13.4029 70.69 27.21 70.69Z" fill="#F9F1E6"/>
<path d="M36.68 54.91C37.0613 52.4669 36.9563 49.9725 36.3711 47.57C35.786 45.1675 34.7321 42.9042 33.27 40.91C31.96 39.07 29.84 36.1801 27.74 35.2601C25.2 34.1501 24.16 35.71 22.36 37.74C17.17 43.58 15.55 50.82 17.88 57.47" fill="#DD6A10"/>
<path d="M96.53 45.4C95.7474 44.9739 95.097 44.3408 94.65 43.57C94.2092 42.7861 93.9849 41.8991 94 41C93.9863 40.0858 94.2176 39.1846 94.67 38.39C95.1205 37.6244 95.7702 36.9954 96.55 36.57C97.2769 36.1901 98.0762 35.9687 98.895 35.9205C99.7137 35.8722 100.533 35.9981 101.3 36.29C101.909 36.5222 102.457 36.8917 102.9 37.37L102.23 38.04C101.839 37.6459 101.371 37.3375 100.854 37.1344C100.338 36.9312 99.7845 36.8378 99.23 36.86C98.4755 36.8509 97.7315 37.0369 97.07 37.4C96.4381 37.7502 95.9128 38.2652 95.55 38.89C95.1892 39.5365 94.9998 40.2646 94.9998 41.005C94.9998 41.7454 95.1892 42.4734 95.55 43.12C95.9128 43.7448 96.4381 44.2597 97.07 44.61C97.7315 44.973 98.4755 45.159 99.23 45.15C99.7865 45.174 100.342 45.0794 100.859 44.8725C101.376 44.6657 101.844 44.3512 102.23 43.95L102.9 44.62C102.453 45.1035 101.903 45.4796 101.29 45.72C100.633 45.9728 99.9339 46.0984 99.23 46.09C98.2853 46.0988 97.3546 45.8609 96.53 45.4Z" fill="#E89B82"/>
<path d="M110.15 36H111.15V45.09H116.76V46H110.1L110.15 36Z" fill="#E89B82"/>
<path d="M123.57 36H124.63V46H123.57V36Z" fill="#E89B82"/>
<path d="M141.26 36V46H140.39L134 37.85V46H133V36H133.87L140.32 44.12V36H141.26Z" fill="#E89B82"/>
<path d="M149.53 36H150.58V46H149.53V36Z" fill="#E89B82"/>
<path d="M160.51 45.4C159.73 44.9732 159.084 44.3401 158.64 43.57C158.203 42.785 157.982 41.8982 158 41C157.99 40.0849 158.225 39.1838 158.68 38.39C159.128 37.6222 159.778 36.9925 160.56 36.57C161.287 36.1901 162.086 35.9687 162.905 35.9205C163.724 35.8722 164.543 35.9981 165.31 36.29C165.919 36.5222 166.467 36.8917 166.91 37.37L166.24 38.04C165.849 37.6459 165.381 37.3375 164.864 37.1344C164.348 36.9312 163.795 36.8378 163.24 36.86C162.486 36.8509 161.741 37.0369 161.08 37.4C160.445 37.7457 159.918 38.2617 159.56 38.89C159.199 39.5365 159.01 40.2646 159.01 41.005C159.01 41.7454 159.199 42.4734 159.56 43.12C159.918 43.7483 160.445 44.2643 161.08 44.61C161.741 44.973 162.486 45.159 163.24 45.15C163.797 45.174 164.352 45.0794 164.869 44.8725C165.386 44.6657 165.854 44.3512 166.24 43.95L166.91 44.62C166.461 45.1014 165.912 45.4771 165.3 45.72C164.64 45.9739 163.937 46.0994 163.23 46.09C162.279 46.1013 161.341 45.8634 160.51 45.4Z" fill="#E89B82"/>
<path d="M180.15 43.29H174.58L173.38 45.97H172.27L176.85 35.97H177.85L182.43 45.97H181.31L180.15 43.29ZM179.77 42.44L177.37 37.06L175 42.44H179.77Z" fill="#E89B82"/>
<path d="M208.28 36V46H207.28V38L203.35 44.74H202.85L198.9 38V46H197.9V36H198.78L203.12 43.42L207.43 36H208.28Z" fill="#E89B82"/>
<path d="M223.62 45.0501V46.0001H216.54V36.0001H223.41V36.9101H217.6V40.4801H222.78V41.3801H217.6V45.0901L223.62 45.0501ZM221 33.3701H222.36L220.04 35.1401H219.04L221 33.3701Z" fill="#E89B82"/>
<path d="M231.11 36H235.19C236.162 35.9782 237.124 36.1981 237.99 36.64C238.776 37.0373 239.432 37.6516 239.88 38.41C240.32 39.2043 240.55 40.0972 240.55 41.005C240.55 41.9128 240.32 42.8057 239.88 43.6C239.432 44.3585 238.776 44.9727 237.99 45.37C237.124 45.8119 236.162 46.0318 235.19 46.01H231.11V36ZM235.11 45.09C235.908 45.111 236.699 44.9323 237.41 44.57C238.045 44.2434 238.575 43.7443 238.94 43.13C239.301 42.4799 239.49 41.7486 239.49 41.005C239.49 40.2615 239.301 39.5302 238.94 38.88C238.579 38.2633 238.047 37.7635 237.41 37.44C236.7 37.0743 235.909 36.8921 235.11 36.91H232.11V45.09H235.11Z" fill="#E89B82"/>
<path d="M247.93 36H249V46H247.94L247.93 36Z" fill="#E89B82"/>
<path d="M258.92 45.3999C258.137 44.9738 257.487 44.3408 257.04 43.57C256.585 42.7763 256.354 41.8744 256.37 40.9599C256.356 40.0457 256.588 39.1445 257.04 38.35C257.491 37.5844 258.14 36.9554 258.92 36.5299C259.647 36.1501 260.446 35.9287 261.265 35.8804C262.084 35.8321 262.903 35.9581 263.67 36.2499C264.279 36.4821 264.827 36.8517 265.27 37.3299L264.6 37.9999C264.209 37.6059 263.741 37.2975 263.224 37.0943C262.708 36.8912 262.155 36.7978 261.6 36.82C260.846 36.8109 260.101 36.9969 259.44 37.3599C258.808 37.7102 258.283 38.2251 257.92 38.85C257.559 39.4965 257.37 40.2246 257.37 40.9649C257.37 41.7053 257.559 42.4334 257.92 43.0799C258.283 43.7048 258.808 44.2197 259.44 44.57C260.101 44.933 260.846 45.119 261.6 45.1099C262.157 45.134 262.712 45.0394 263.229 44.8325C263.746 44.6256 264.214 44.3112 264.6 43.91L265.27 44.5799C264.823 45.0634 264.273 45.4395 263.66 45.6799C263.003 45.9328 262.304 46.0584 261.6 46.0499C260.666 46.0675 259.743 45.8436 258.92 45.3999Z" fill="#E89B82"/>
<path d="M278.56 43.29H273L271.8 45.97H270.7L275.27 35.97H276.32L280.89 45.97H279.78L278.56 43.29ZM278.17 42.44L275.77 37.06L273.37 42.44H278.17Z" fill="#E89B82"/>
<path d="M82.44 78.68C82.4276 79.9124 82.749 81.1253 83.37 82.19C84.0116 83.2735 84.8736 84.2104 85.9 84.94C87.0062 85.7406 88.2357 86.3554 89.54 86.76C90.9033 87.2002 92.3274 87.423 93.76 87.42C94.9277 87.4171 96.0926 87.3067 97.24 87.09C98.3816 86.8869 99.4682 86.4475 100.43 85.8C101.403 85.1276 102.193 84.2238 102.73 83.17C103.368 81.8328 103.67 80.3603 103.61 78.88C103.621 78.2382 103.484 77.6026 103.208 77.023C102.932 76.4435 102.525 75.9358 102.02 75.54C100.804 74.5724 99.4572 73.7813 98.02 73.19C96.41 72.5 94.67 71.84 92.82 71.19C91.0246 70.5961 89.2819 69.8536 87.61 68.97C86.0986 68.1852 84.7431 67.1313 83.61 65.86C82.5273 64.5772 81.9605 62.9375 82.02 61.26C81.9859 59.8904 82.4041 58.5478 83.21 57.44C84.0157 56.3717 85.0381 55.4857 86.21 54.84C87.4095 54.1567 88.7035 53.6546 90.05 53.35C91.3077 53.0449 92.5959 52.8839 93.89 52.87C96.4335 52.768 98.9744 53.1271 101.39 53.93C103.018 54.5164 104.47 55.5075 105.61 56.81L104.4 60.55C104.372 59.7816 104.145 59.0338 103.74 58.38C103.243 57.527 102.584 56.7796 101.8 56.18C100.82 55.4236 99.7174 54.8417 98.54 54.46C97.0387 53.9757 95.4671 53.7459 93.89 53.78C92.8143 53.7817 91.7429 53.9161 90.7 54.18C89.6707 54.4279 88.6904 54.8471 87.8 55.42C86.9417 55.9728 86.2147 56.7066 85.67 57.57C85.0957 58.5291 84.8077 59.6325 84.84 60.75C84.8184 61.8077 85.1728 62.8389 85.84 63.66C86.5443 64.5043 87.4029 65.2068 88.37 65.73C89.5103 66.3659 90.7134 66.8819 91.96 67.27L96.08 68.61C97.47 69.07 98.85 69.56 100.2 70.08C101.474 70.5637 102.686 71.1983 103.81 71.97C104.831 72.6722 105.707 73.5653 106.39 74.6C107.056 75.6963 107.403 76.9571 107.39 78.24C107.542 80.083 107.167 81.9313 106.31 83.57C105.56 84.8404 104.473 85.8786 103.17 86.57C101.8 87.2802 100.313 87.7343 98.78 87.91C97.1443 88.1098 95.4979 88.21 93.85 88.21C91.983 88.2341 90.1188 88.0564 88.29 87.68C86.9352 87.3981 85.6144 86.9723 84.35 86.41C83.4605 86.0797 82.6325 85.6031 81.9 85C81.38 84.5 81.12 84.09 81.12 83.79L82.44 78.68Z" fill="#E89B82"/>
<path d="M126.36 70.34C127.627 70.3167 128.891 70.4613 130.12 70.77C131.041 71.0051 131.933 71.3404 132.78 71.77V70.56C132.836 69.1442 132.629 67.7304 132.17 66.39C131.869 65.5341 131.344 64.7744 130.65 64.19C130.091 63.7368 129.421 63.44 128.71 63.3299C128.048 63.2309 127.379 63.1808 126.71 63.18C125.583 63.1253 124.468 63.4338 123.53 64.06C122.724 64.6439 122.15 65.4939 121.91 66.46L118.98 65.5499C119.897 64.5192 121.036 63.7091 122.31 63.18C123.73 62.6411 125.241 62.383 126.76 62.42C127.71 62.4345 128.658 62.5349 129.59 62.72C130.674 62.928 131.71 63.3313 132.65 63.91C133.646 64.54 134.479 65.3966 135.08 66.41C135.792 67.7099 136.138 69.1789 136.08 70.66V85.27C136.063 85.6712 136.124 86.072 136.26 86.45C136.343 86.6897 136.492 86.9011 136.69 87.06C136.848 87.1732 137.029 87.2516 137.22 87.29C137.362 87.3165 137.506 87.3332 137.65 87.34C137.89 87.34 138 87.49 138 87.79C137.997 87.9484 137.963 88.1047 137.9 88.25H130.3C128.65 88.25 126.87 88.25 124.97 88.12C123.159 88.0568 121.365 87.7439 119.64 87.19C118.06 86.6998 116.638 85.7991 115.52 84.5799C114.33 83.1266 113.74 81.2738 113.87 79.4C113.806 77.896 114.152 76.403 114.87 75.0799C115.543 73.9401 116.487 72.9849 117.62 72.2999C118.857 71.5751 120.21 71.0709 121.62 70.81C123.181 70.4972 124.768 70.3397 126.36 70.34ZM117.36 79.34C117.249 81.0284 117.734 82.7022 118.73 84.07C119.614 85.1456 120.776 85.9583 122.09 86.42C123.456 86.8971 124.885 87.1701 126.33 87.23C127.83 87.3 129.15 87.3299 130.33 87.3299C130.895 87.3305 131.454 87.2112 131.97 86.98C132.5 86.74 132.77 86.15 132.81 85.21V72.66C131.988 72.2358 131.123 71.9006 130.23 71.66C128.977 71.3311 127.685 71.1763 126.39 71.2C125.263 71.2012 124.138 71.3049 123.03 71.51C121.989 71.6833 121.003 72.0976 120.15 72.72C119.284 73.3717 118.596 74.2316 118.15 75.22C117.583 76.5313 117.313 77.952 117.36 79.38V79.34Z" fill="#E89B82"/>
<path d="M143.19 87.3699C143.334 87.3631 143.478 87.3465 143.62 87.3199C143.807 87.2858 143.98 87.1991 144.12 87.0699C144.307 86.8895 144.454 86.6714 144.55 86.4299C144.705 86.074 144.777 85.6876 144.76 85.2999V66.2999C144.76 65.2999 144.57 64.7399 144.3 64.5299C143.972 64.3132 143.583 64.2081 143.19 64.2299C143.134 64.2362 143.077 64.2252 143.027 64.1985C142.977 64.1717 142.936 64.1303 142.91 64.0799C142.862 63.9837 142.838 63.8773 142.84 63.7699C142.844 63.6148 142.878 63.462 142.94 63.3199L148.14 62.4099V63.9299C148.14 64.2599 148.14 64.6799 148.14 65.1899C148.584 64.41 149.23 63.7641 150.01 63.3199C151.17 62.6883 152.481 62.3906 153.8 62.4599C154.808 62.4704 155.813 62.5809 156.8 62.7899C157.858 63.0051 158.872 63.3973 159.8 63.9499C160.745 64.5246 161.543 65.3122 162.13 66.2499C162.789 67.3827 163.112 68.6801 163.06 69.9899V85.2999C163.043 85.7012 163.104 86.1019 163.24 86.4799C163.329 86.7253 163.476 86.9451 163.67 87.1199C163.823 87.2468 164.005 87.3329 164.2 87.3699C164.342 87.3969 164.486 87.4136 164.63 87.4199C164.86 87.4199 164.98 87.5499 164.98 87.8199C164.98 87.9627 164.946 88.1034 164.88 88.2299H157.88C157.817 88.0847 157.783 87.9283 157.78 87.7699C157.78 87.4999 157.89 87.3699 158.13 87.3699C158.486 87.3484 158.831 87.2347 159.13 87.0399C159.52 86.8199 159.72 86.2399 159.72 85.2999V70.9399C159.825 68.9597 159.261 67.0017 158.12 65.3799C157.621 64.7113 156.967 64.1738 156.215 63.8132C155.462 63.4527 154.634 63.28 153.8 63.3099C152.9 63.2906 152.004 63.4258 151.15 63.7099C150.508 63.9222 149.916 64.2624 149.41 64.7099C148.989 65.0724 148.649 65.5186 148.41 66.0199C148.223 66.4321 148.121 66.8775 148.11 67.3299V85.2999C148.093 85.7012 148.154 86.1019 148.29 86.4799C148.379 86.7253 148.526 86.9451 148.72 87.1199C148.873 87.2468 149.055 87.3329 149.25 87.3699C149.408 87.3994 149.569 87.4162 149.73 87.4199C150 87.4199 150.1 87.5499 150.03 87.8199C150.03 87.9627 149.996 88.1034 149.93 88.2299H142.93C142.867 88.0847 142.833 87.9283 142.83 87.7699C142.84 87.4999 143 87.3699 143.19 87.3699Z" fill="#E89B82"/>
<path d="M203.79 53.9101C206.264 53.8506 208.726 54.2717 211.04 55.1501C213.066 55.9581 214.807 57.3504 216.04 59.1501L212.45 60.3201C212.062 59.3756 211.48 58.5237 210.74 57.8201C210.078 57.1954 209.326 56.6729 208.51 56.2701C207.749 55.9029 206.942 55.6405 206.11 55.4901C205.352 55.3453 204.582 55.2683 203.81 55.2601C201.935 55.2533 200.084 55.6776 198.4 56.5001C196.713 57.3285 195.209 58.4882 193.98 59.9101C192.69 61.4147 191.675 63.1341 190.98 64.9901C190.233 66.9677 189.857 69.0661 189.87 71.1801C189.854 73.2878 190.231 75.38 190.98 77.3501C191.676 79.1813 192.692 80.8742 193.98 82.3501C195.216 83.7595 196.718 84.9114 198.4 85.7401C200.085 86.5594 201.936 86.9803 203.81 86.9701C204.608 86.9718 205.404 86.9049 206.19 86.7701C206.993 86.6415 207.78 86.4304 208.54 86.1401C209.281 85.8597 209.991 85.5045 210.66 85.0801C211.281 84.6916 211.835 84.2054 212.3 83.6401V74.5401C212.3 73.6601 212.09 73.1101 211.77 72.8701C211.52 72.6645 211.213 72.5421 210.89 72.5201H208.51C207.978 72.5203 207.447 72.5538 206.92 72.6201C206.36 72.6893 205.809 72.8235 205.28 73.0201C204.746 73.2233 204.249 73.514 203.81 73.8801C203.345 74.2658 202.998 74.7755 202.81 75.3501C202.773 75.4491 202.703 75.5325 202.612 75.587C202.521 75.6414 202.415 75.6637 202.31 75.6501C202.172 75.6532 202.034 75.6364 201.9 75.6001L202.66 71.6001H217.47C217.528 71.7259 217.562 71.8616 217.57 72.0001C217.57 72.3101 217.45 72.4601 217.22 72.4601C216.862 72.488 216.517 72.6086 216.22 72.8101C215.83 73.0501 215.64 73.6501 215.64 74.6301V84.7401C214.144 85.998 212.394 86.9189 210.51 87.4401C208.319 88.0856 206.044 88.4023 203.76 88.3801C201.437 88.3817 199.137 87.9122 197 87.0001C192.851 85.284 189.541 82.0097 187.78 77.8801C186.876 75.7533 186.41 73.466 186.41 71.1551C186.41 68.8441 186.876 66.5568 187.78 64.4301C189.553 60.2901 192.856 56.9945 197 55.2301C199.148 54.3255 201.46 53.8761 203.79 53.9101Z" fill="#E89B82"/>
<path d="M235.79 70.3399C237.057 70.3173 238.321 70.4619 239.55 70.7699C240.468 71.0032 241.357 71.3386 242.2 71.7699V70.5599C242.259 69.1448 242.055 67.7311 241.6 66.3899C241.295 65.5358 240.771 64.777 240.08 64.1899C239.521 63.7368 238.851 63.44 238.14 63.3299C237.494 63.2333 236.843 63.1832 236.19 63.1799C235.066 63.104 233.948 63.3915 233 63.9999C232.194 64.5838 231.62 65.4339 231.38 66.3999L228.45 65.4899C229.365 64.4571 230.504 63.6466 231.78 63.1199C233.2 62.5811 234.711 62.323 236.23 62.3599C237.18 62.3745 238.128 62.4749 239.06 62.6599C240.144 62.868 241.18 63.2712 242.12 63.8499C243.116 64.4799 243.949 65.3366 244.55 66.3499C245.262 67.6498 245.608 69.1188 245.55 70.5999V85.2099C245.533 85.6112 245.594 86.0119 245.73 86.3899C245.813 86.6296 245.962 86.841 246.16 86.9999C246.318 87.1131 246.499 87.1915 246.69 87.2299C246.832 87.2569 246.976 87.2736 247.12 87.2799C247.35 87.2799 247.47 87.4299 247.47 87.7299C247.467 87.8884 247.433 88.0447 247.37 88.1899H239.74C238.09 88.1899 236.31 88.1899 234.41 88.0599C232.596 87.9967 230.799 87.6838 229.07 87.1299C227.492 86.635 226.072 85.7351 224.95 84.5199C223.768 83.0627 223.182 81.2118 223.31 79.3399C223.246 77.836 223.592 76.3429 224.31 75.0199C224.983 73.88 225.927 72.9248 227.06 72.2399C228.297 71.515 229.65 71.0109 231.06 70.7499C232.619 70.4573 234.204 70.3199 235.79 70.3399ZM226.79 79.3399C226.676 81.0271 227.157 82.7008 228.15 84.0699C229.034 85.1455 230.196 85.9583 231.51 86.4199C232.879 86.8963 234.311 87.1692 235.76 87.2299C237.26 87.2999 238.58 87.3299 239.76 87.3299C240.325 87.3304 240.884 87.2112 241.4 86.9799C241.92 86.7399 242.2 86.1499 242.23 85.2099V72.6599C241.412 72.2337 240.551 71.8984 239.66 71.6599C238.407 71.3311 237.115 71.1763 235.82 71.1999C234.69 71.2016 233.562 71.3054 232.45 71.5099C231.41 71.6871 230.425 72.1011 229.57 72.7199C228.706 73.3738 228.018 74.2331 227.57 75.2199C227.006 76.5321 226.74 77.9527 226.79 79.3799V79.3399Z" fill="#E89B82"/>
<path d="M252.11 87.3701C252.254 87.3633 252.398 87.3466 252.54 87.3201C252.73 87.2847 252.906 87.1983 253.05 87.0701C253.231 86.8846 253.377 86.6677 253.48 86.4301C253.626 86.0719 253.694 85.6867 253.68 85.3001V56.7401C253.68 55.7401 253.49 55.1701 253.22 54.9701C252.892 54.7534 252.503 54.6482 252.11 54.6701C252.054 54.6751 251.997 54.6635 251.948 54.6368C251.898 54.6102 251.857 54.5696 251.83 54.5201C251.784 54.4231 251.76 54.3173 251.76 54.2101C251.764 54.055 251.798 53.9021 251.86 53.7601L257.06 52.8501L257 65.1801C257.247 64.8661 257.518 64.5719 257.81 64.3001C258.197 63.9456 258.631 63.6462 259.1 63.4101C259.704 63.1075 260.342 62.8792 261 62.7301C261.842 62.5304 262.705 62.4364 263.57 62.4501C265.161 62.4437 266.743 62.7004 268.25 63.2101C269.732 63.6935 271.095 64.484 272.25 65.5301C273.442 66.6514 274.38 68.0154 275 69.5301C275.722 71.3795 276.062 73.3558 276 75.3401C276 79.8201 274.56 83.0968 271.68 85.1701C268.8 87.2434 264.73 88.2801 259.47 88.2801H258C257.17 88.2801 256.31 88.2801 255.4 88.2801H251.86C251.797 88.1349 251.763 87.9785 251.76 87.8201C251.76 87.5001 251.87 87.3701 252.11 87.3701ZM259.49 87.4201C261.137 87.4246 262.778 87.2128 264.37 86.7901C265.882 86.3902 267.3 85.6933 268.54 84.7401C269.792 83.7434 270.787 82.4608 271.44 81.0001C272.215 79.2165 272.587 77.2839 272.53 75.3401C272.567 73.5241 272.31 71.7142 271.77 69.9801C271.345 68.6186 270.666 67.3496 269.77 66.2401C268.994 65.3015 268.016 64.5497 266.91 64.0401C265.862 63.5589 264.723 63.3099 263.57 63.3101C262.651 63.2927 261.733 63.3935 260.84 63.6101C260.183 63.7839 259.553 64.0499 258.97 64.4001C258.517 64.6676 258.108 65.0051 257.76 65.4001C257.46 65.7701 257.21 66.1101 257 66.4001V85.3001C257 86.2401 257.23 86.8301 257.69 87.0701C258.255 87.3246 258.871 87.4444 259.49 87.4201Z" fill="#E89B82"/>
<path d="M281.43 87.37C281.574 87.3632 281.718 87.3465 281.86 87.32C282.052 87.284 282.233 87.2054 282.39 87.09C282.585 86.9283 282.733 86.7178 282.82 86.48C282.947 86.1 283.004 85.7003 282.99 85.3L283.04 66.3C283.04 65.3266 282.89 64.7366 282.59 64.53C282.262 64.3133 281.873 64.2081 281.48 64.23C281.424 64.2363 281.367 64.2253 281.317 64.1985C281.267 64.1717 281.226 64.1304 281.2 64.08C281.149 63.9845 281.122 63.8782 281.12 63.77C281.129 63.6155 281.162 63.4635 281.22 63.32L286.43 62.41V64.08C287.485 63.4123 288.66 62.9571 289.89 62.74C291.015 62.5301 292.156 62.4197 293.3 62.41C295.038 62.3797 296.767 62.6538 298.41 63.22C299.792 63.685 300.983 64.5915 301.8 65.8L299 67.2C298.856 66.6754 298.619 66.1809 298.3 65.74C297.957 65.2537 297.546 64.8192 297.08 64.45C296.583 64.0456 296.022 63.7278 295.42 63.51C294.752 63.2742 294.048 63.1558 293.34 63.16C292.641 63.1667 291.943 63.2168 291.25 63.31C290.434 63.4192 289.655 63.7133 288.97 64.17C288.172 64.7262 287.536 65.4858 287.13 66.37C286.558 67.6826 286.298 69.1099 286.37 70.54V85.3C286.356 85.6866 286.424 86.0718 286.57 86.43C286.673 86.6676 286.819 86.8844 287 87.07C287.142 87.2009 287.319 87.2877 287.51 87.32C287.652 87.3476 287.796 87.3643 287.94 87.37C288.17 87.37 288.29 87.5 288.29 87.77C288.287 87.9284 288.253 88.0848 288.19 88.23H281.19C281.131 88.0833 281.098 87.9278 281.09 87.77C281.07 87.5 281.19 87.37 281.43 87.37Z" fill="#E89B82"/>
<path d="M307.71 87.37C307.854 87.3632 307.998 87.3465 308.14 87.32C308.327 87.2859 308.501 87.1992 308.64 87.07C308.827 86.8896 308.974 86.6714 309.07 86.43C309.225 86.0741 309.297 85.6877 309.28 85.3V66.24C309.28 65.24 309.09 64.67 308.82 64.47C308.492 64.2533 308.103 64.1482 307.71 64.17C307.47 64.17 307.36 64.02 307.36 63.71C307.368 63.5715 307.402 63.4358 307.46 63.31L312.66 62.4L312.61 85.3C312.593 85.7012 312.654 86.102 312.79 86.48C312.879 86.7254 313.026 86.9452 313.22 87.12C313.373 87.2469 313.555 87.333 313.75 87.37C313.908 87.3995 314.069 87.4163 314.23 87.42C314.5 87.42 314.6 87.55 314.53 87.82C314.53 87.9628 314.496 88.1035 314.43 88.23H307.43C307.367 88.0848 307.333 87.9284 307.33 87.77C307.36 87.5 307.47 87.37 307.71 87.37ZM310.49 56.37C310.842 56.3638 311.191 56.4298 311.516 56.564C311.841 56.6981 312.135 56.8976 312.38 57.15C312.886 57.6708 313.17 58.3686 313.17 59.095C313.17 59.8214 312.886 60.5192 312.38 61.04C312.135 61.2924 311.841 61.4919 311.516 61.626C311.191 61.7602 310.842 61.8262 310.49 61.82C310.118 61.8425 309.746 61.7888 309.396 61.662C309.045 61.5353 308.725 61.3382 308.454 61.0829C308.183 60.8277 307.966 60.5196 307.819 60.1778C307.671 59.8359 307.595 59.4674 307.595 59.095C307.595 58.7226 307.671 58.3541 307.819 58.0122C307.966 57.6704 308.183 57.3623 308.454 57.1071C308.725 56.8518 309.045 56.6547 309.396 56.528C309.746 56.4012 310.118 56.3475 310.49 56.37Z" fill="#E89B82"/>
<path d="M331.92 62.35C333.6 62.3264 335.265 62.6675 336.8 63.35C338.241 64.0056 339.532 64.9521 340.59 66.13C341.666 67.3318 342.498 68.7311 343.04 70.25C343.616 71.8537 343.907 73.5459 343.9 75.25H323.07C323.064 76.82 323.314 78.3805 323.81 79.87C324.257 81.2467 324.933 82.5381 325.81 83.69C326.616 84.7525 327.639 85.6318 328.81 86.27C329.988 86.9003 331.304 87.23 332.64 87.23C333.976 87.23 335.292 86.9003 336.47 86.27C337.634 85.6209 338.654 84.7433 339.47 83.69L341.47 84.9C340.297 85.9732 338.942 86.8298 337.47 87.43C335.946 88.0469 334.314 88.3561 332.67 88.34C330.108 88.3555 327.599 87.609 325.462 86.1952C323.326 84.7814 321.658 82.7642 320.67 80.4C319.993 78.8033 319.653 77.0842 319.67 75.35C319.657 73.6248 319.965 71.9122 320.58 70.3C321.149 68.7624 322.015 67.3521 323.13 66.15C324.234 64.9613 325.567 64.0088 327.05 63.35C328.584 62.6737 330.244 62.3328 331.92 62.35ZM323.07 74.35H340.41C340.357 72.888 340.129 71.4376 339.73 70.03C339.382 68.7778 338.817 67.5964 338.06 66.54C337.367 65.5724 336.469 64.7699 335.43 64.19C334.353 63.6067 333.144 63.3105 331.92 63.33C330.68 63.3143 329.456 63.61 328.36 64.19C327.293 64.7696 326.362 65.5709 325.63 66.54C324.838 67.5942 324.23 68.774 323.83 70.03C323.377 71.4379 323.121 72.9019 323.07 74.38V74.35Z" fill="#E89B82"/>
<path d="M349.16 87.3701C349.304 87.3633 349.448 87.3466 349.59 87.3201C349.777 87.286 349.95 87.1993 350.09 87.0701C350.273 86.8867 350.42 86.6693 350.52 86.4301C350.666 86.0719 350.734 85.6867 350.72 85.3001V56.7401C350.72 55.7601 350.57 55.1701 350.27 54.9701C349.942 54.7534 349.553 54.6482 349.16 54.6701C349.104 54.6764 349.047 54.6654 348.997 54.6386C348.947 54.6119 348.906 54.5705 348.88 54.5201C348.831 54.4237 348.804 54.318 348.8 54.2101C348.804 54.055 348.838 53.9021 348.9 53.7601L354.11 52.8501L354.06 85.3001C354.043 85.7013 354.104 86.1021 354.24 86.4801C354.325 86.7246 354.47 86.9444 354.66 87.1201C354.816 87.2471 355.002 87.333 355.2 87.3701C355.358 87.3996 355.519 87.4164 355.68 87.4201C355.94 87.4201 356.05 87.5501 355.98 87.8201C355.976 87.9623 355.942 88.1021 355.88 88.2301H348.88C348.817 88.0849 348.783 87.9285 348.78 87.7701C348.8 87.5001 348.92 87.3701 349.16 87.3701Z" fill="#E89B82"/>
<path d="M27.29 63.83C24.02 64.1 20.21 61.2101 18.14 58.8901C15.7922 56.3 14.2494 53.0824 13.7 49.6301C13.58 48.7401 12.27 40.6301 13.59 40.5701C15.455 40.593 17.2636 41.2134 18.75 42.3401C22.1241 44.555 24.927 47.536 26.93 51.0401" fill="#89391A"/>
<path d="M26.81 63.83C30.08 64.03 33.81 61.06 35.86 58.7C38.151 56.0611 39.6243 52.8122 40.1 49.35C40.21 48.46 41.35 40.35 40.03 40.29C38.1674 40.3502 36.373 41.0056 34.91 42.16C31.5812 44.4445 28.8399 47.4839 26.91 51.03" fill="#E89B82"/>
<path d="M8 3.22998C8.13215 4.2548 8.38041 5.26126 8.74 6.22998C9.07929 7.19141 9.51484 8.11611 10.04 8.98999C11.0838 10.7149 12.3779 12.2752 13.88 13.62L14.45 14.11L14.73 14.36L15.03 14.59L15.62 15.06L16.23 15.5L16.53 15.72L16.85 15.93L17.47 16.35C17.9 16.61 18.32 16.88 18.76 17.12C19.63 17.63 20.53 18.12 21.44 18.53C22.35 18.94 23.28 19.37 24.22 19.76C25.16 20.15 26.11 20.54 27.07 20.9L30 22C31.94 22.73 33.89 23.51 35.83 24.39C36.83 24.82 37.76 25.3 38.71 25.81C39.66 26.32 40.58 26.89 41.49 27.49L42.17 27.95C42.39 28.1 42.61 28.28 42.83 28.44C43.27 28.76 43.69 29.12 44.12 29.44C44.9488 30.1621 45.7399 30.9265 46.49 31.73C47.9837 33.3485 49.2763 35.1415 50.34 37.07C51.4012 39.012 52.1983 41.087 52.71 43.24C53.2253 45.3964 53.4241 47.6163 53.3 49.83C53.25 50.38 53.2 50.93 53.14 51.48C53.08 52.03 52.97 52.56 52.87 53.11C52.6408 54.1887 52.33 55.2484 51.94 56.28C51.1684 58.3322 50.082 60.2519 48.72 61.97C47.3886 63.6513 45.8724 65.1775 44.2 66.52C42.5584 67.8333 40.8313 69.036 39.03 70.12C38.13 70.66 37.23 71.18 36.32 71.69C35.41 72.2 34.5 72.69 33.57 73.17L36.06 71.29C36.89 70.66 37.71 70.04 38.52 69.39C40.1317 68.1202 41.677 66.7684 43.15 65.34C44.5898 63.9384 45.8832 62.3937 47.01 60.73C47.5633 59.9146 48.0547 59.0589 48.48 58.17C48.9043 57.2902 49.2652 56.3812 49.56 55.45C49.8519 54.5255 50.0693 53.5792 50.21 52.62C50.28 52.14 50.33 51.62 50.39 51.17C50.45 50.72 50.39 50.17 50.47 49.72C50.4954 47.7833 50.2565 45.8521 49.76 43.98C49.2582 42.1037 48.5189 40.2991 47.56 38.61C46.6099 36.911 45.4583 35.3329 44.13 33.91C41.3966 31.0476 38.1372 28.7388 34.53 27.11C30.9 25.33 27.01 23.88 23.21 22.03C21.2907 21.1095 19.4393 20.0534 17.67 18.87C15.8906 17.6733 14.2563 16.2739 12.8 14.7C11.3405 13.1261 10.1511 11.3218 9.28 9.35999C8.85069 8.39458 8.5158 7.3899 8.28 6.35999C8.05795 5.33219 7.96391 4.28087 8 3.22998Z" fill="#E89B82"/>
<path d="M47.15 0.350098C47.2468 0.909457 47.3136 1.47359 47.35 2.04008C47.35 2.60008 47.35 3.1701 47.35 3.7401C47.35 4.3101 47.26 4.86008 47.19 5.43008C47.12 6.00008 47 6.5401 46.89 7.1001C45.8341 11.5744 43.4247 15.6144 39.99 18.6701C39.56 19.0301 39.11 19.3901 38.66 19.7301C38.21 20.0701 37.73 20.3701 37.25 20.7301C36.77 21.0901 36.25 21.2801 35.75 21.5301C35.25 21.7801 34.75 21.9701 34.17 22.1401C34.5 21.6701 34.85 21.2401 35.17 20.8201C35.49 20.4001 35.84 19.9601 36.17 19.5401C36.5 19.1201 36.82 18.6801 37.17 18.2701C37.52 17.8601 37.79 17.4201 38.11 17.0001C39.35 15.3101 40.5 13.5901 41.55 11.8201C42.6 10.0501 43.55 8.23009 44.48 6.33009C44.69 5.86009 44.91 5.38009 45.15 4.90009C45.39 4.42009 45.57 3.90009 45.8 3.44009C46.03 2.98009 46.21 2.44009 46.45 1.94009C46.69 1.44009 46.89 0.870098 47.15 0.350098Z" fill="#E89B82"/>
<path d="M14.35 27C13.5048 27.5375 12.6902 28.1218 11.91 28.75C11.1405 29.372 10.4091 30.0399 9.72 30.75C9.05535 31.4709 8.42787 32.2252 7.84 33.01C7.2769 33.8053 6.75618 34.6298 6.28 35.48C3.5147 40.5701 2.77189 46.5161 4.2 52.13L4.39 52.82C4.45 53.04 4.53 53.27 4.6 53.49L4.71 53.83C4.71 53.94 4.79 54.04 4.82 54.15C4.85 54.26 4.97 54.59 5.07 54.8C5.41462 55.6625 5.82934 56.4953 6.31 57.29C6.7917 58.0858 7.32274 58.8506 7.9 59.58C8.48726 60.3141 9.11842 61.0121 9.79 61.67C11.155 63.0042 12.6377 64.2124 14.22 65.28C15.8269 66.3764 17.4964 67.3781 19.22 68.28C20.09 68.73 20.96 69.17 21.85 69.6C22.74 70.03 23.64 70.42 24.54 70.83C28.306 72.3831 31.9525 74.2114 35.45 76.3C37.2168 77.3808 38.8893 78.6084 40.45 79.97C41.2365 80.6549 41.9781 81.3897 42.67 82.17L43.18 82.77C43.35 82.97 43.5 83.19 43.66 83.4C43.99 83.81 44.26 84.26 44.56 84.7L44.95 85.39C45.01 85.51 45.08 85.62 45.13 85.74L45.3 86.1L45.47 86.46C45.5312 86.5764 45.5846 86.6966 45.63 86.82L45.9 87.56C45.99 87.81 46.05 88.07 46.12 88.32L46.23 88.7C46.23 88.83 46.28 88.96 46.3 89.09C46.32 89.22 46.4 89.61 46.43 89.87L46.49 90.65C46.5432 91.6865 46.4591 92.7255 46.24 93.74C46.1339 94.238 45.997 94.729 45.83 95.21C45.7565 95.4526 45.6663 95.6899 45.56 95.92L45.27 96.62L45.44 95.88C45.49 95.64 45.56 95.4 45.59 95.15L45.7 94.41C45.7353 94.1648 45.7553 93.9177 45.76 93.67C45.8357 92.6976 45.7853 91.7195 45.61 90.76L45.46 90.05C45.4 89.82 45.32 89.59 45.25 89.36L45.15 89.02L45.01 88.68C44.92 88.46 44.84 88.24 44.73 88.03C44.3246 87.1665 43.8285 86.3485 43.25 85.59C42.0585 84.0745 40.6656 82.7287 39.11 81.59C38.34 81.01 37.53 80.47 36.71 79.95C36.29 79.69 35.88 79.43 35.46 79.2L34.82 78.83L34.18 78.48C33.75 78.24 33.31 78.02 32.88 77.79L31.55 77.14C30.67 76.72 29.77 76.31 28.87 75.91C27.97 75.51 27.05 75.13 26.13 74.75L23.35 73.62C21.4567 72.86 19.5933 72.0133 17.76 71.08C15.9139 70.1404 14.1272 69.0884 12.41 67.93C10.6691 66.7507 9.04206 65.4116 7.55001 63.93C6.03379 62.408 4.7288 60.6893 3.67 58.82C3.14359 57.8769 2.6922 56.8939 2.32 55.88C2.22 55.63 2.15 55.37 2.06 55.11C1.97 54.85 1.9 54.6 1.83 54.34C1.76 54.08 1.68001 53.83 1.62001 53.57L1.45 52.79C1.01042 50.7106 0.849012 48.5819 0.970004 46.46C1.21223 42.2405 2.59466 38.1658 4.97 34.67C7.28304 31.2545 10.5431 28.5887 14.35 27Z" fill="#E89B82"/>
<path d="M6.53 94.8399C6.46 94.2999 6.42 93.7499 6.4 93.1899C6.38 92.6299 6.46 92.0899 6.51 91.5399C6.56 90.9899 6.69 90.4499 6.8 89.8999C6.91 89.3499 7.1 88.8299 7.27 88.2999C8.02221 86.1817 9.16156 84.2217 10.63 82.5199C12.0852 80.8054 13.8533 79.3835 15.84 78.3299C16.34 78.0799 16.84 77.8399 17.35 77.6199C17.86 77.3999 18.4 77.2499 18.93 77.0799C19.46 76.9099 20.01 76.8299 20.55 76.7299C21.09 76.6299 21.65 76.6199 22.2 76.6099C21.76 76.9599 21.32 77.2699 20.88 77.5599C20.44 77.8499 20.04 78.1999 19.62 78.4999C19.2 78.7999 18.81 79.1399 18.41 79.4499C18.01 79.7599 17.64 80.1099 17.25 80.4499C15.7559 81.7423 14.3588 83.1427 13.07 84.6399C11.7793 86.1399 10.6027 87.7343 9.55 89.4099C9.3 89.8399 9.04 90.2699 8.76 90.6999C8.48 91.1299 8.27 91.5899 8 92.0399C7.73 92.4899 7.53 92.9599 7.27 93.4299C7.01 93.8999 6.81 94.3499 6.53 94.8399Z" fill="#E89B82"/>
</svg>
